<?xml version="1.0" encoding="UTF-8"?>
<svg id="Layer_1" data-name="Layer 1" xmlns="http://www.w3.org/2000/svg" viewBox="0 0 837.51 700">
  <defs>
    <style>
      .cls-1 {
        fill: #1d1d1b;
        stroke-width: 0px;
      }
    </style>
  </defs>
  <path class="cls-1" d="M559.27,537.35v.07s.01,0,.03.12c0-.02.01-.05.01-.07-.01,0-.02-.02-.04-.12Z"/>
  <path class="cls-1" d="M559.31,537.46s-.01.05-.01.07c-.02-.11-.03-.12-.03-.12v-.07c.02.1.03.11.04.12Z"/>
  <path class="cls-1" d="M644.85,394.86c-.36-5.84-1.23-3.59-1.65-7.79.12-.13-1.6-8.06-2.12-8.64-.64.84-1.54,10.9-1.35,10.85,0,0,0-.01.02-.02v-.73s0,.78,0,.77c-.68,1.22-1.3,2.42-2.25,3.72-.49.15-2.03-14.82-2.53-18.45-2.23,11.32,1.19,15.7-6.96,15.33-.13,9.91.04,14.2-.29,15.39-.9,3.33-2.08-4.69-2.06-11.79-1.56,12.3-3.38,24.49-4.09,36.73-2.18,37.36-2.74,74.72-.26,112.07.12,1.74-.2,3.51-.32,5.27-.42.01-.85.03-1.27.04-13.76-48.93-27.51-97.85-41.27-146.78-.5.1-1,.21-1.5.31.39,1.93.91,3.84,1.13,5.78.25,2.18-6.41,1.4-6.47.35-.84-1.75-1.42-3.25-2.58-3.94-2.81-1.69-3.81-3.5-4.12-6.87-.37-3.97-3.02-7.8-5.07-11.51-.32-.57-2.87-.56-4.11-.14-6.85,2.35-9.89,7.41-10.74,13.69-3.04,22.52-6.74,45.01-8.78,67.6-4.18,46.07-4.01,92.23-3.38,138.38.09,6.56,3.07,10.53,8.15,14,5.32,3.65,11.86,3.22,16.01-1.63,2.11-2.48,3.81-5.69,4.37-8.75,1.31-7.17,2.21-14.43,2.58-21.68,1.65-33.22,2.76-66.44.83-99.66-.38-6.68-.74-13.37-1.11-20.04.44-.03.88-.06,1.32-.08,1.86,8.68,3.76,17.36,5.56,26.05,8.05,38.91,17.41,77.41,36.94,113.1,3.2,5.84,6.5,10.9,13.17,14.08,2.71,1.3,3.71.78,4.79-.51-.29-2.4.37-4.53.18-6.6-.42-4.59-.97-9.04,3.65-12.38.44-.32,1.72-3.51,1.69-4.03-.21-3.68.96-13.33.96-13.33.07,3.94.66,14.04.66,14.04.65-3.65,1.93-9.29,2.43-20.33.45.07.82,6.42,1.27,8.89,1.2-4.16,5.5-18.88,5.51-18.87-.54-.97-1.18-3.55-1.17-3.52-.26-.82-.37-5.82-.28-7.05l-.57-10.41.87-3.47c.22,0,.44,0,.66.01.01-.14.03-.26.04-.4,0-.08.01-.16.02-.24.01-.13.03-.24.03-.37.57-5.8,1.17-11.63,2.04-17.82.36-.71.31-1.02.42-1.31.99-2.39,2.39-4.54,2.53,10.05.01,1.22.27,5.35.6,6.56.42-.03.83-.07,1.59-.51.36-37.61.37-93.62.38-130.82-.16,0-3.86-8.86-4.08-12.6Z"/>
  <path class="cls-1" d="M426.16,116.37c6.89-.9,6.53-.99,9.22-.27.36.61,1.65.78,1.88,1.2-1.07.27-2.13.54-3.76.71-2.9.42-1.87,3.93-2.15,4.46-.19.36-5.43,1.68-9.68,1.68,2.41,1.03,3.6,1.54,4.79,2.05-.05.27-33.01-.7-37.35-.38,0,.43,1.83,1.73,3.13,1.99,5.2.32,10.04.61,14.88.89,3.61.3,10.93,1.9,10.98,2.4-7.67,1.31-15.31,2.83-23.03,3.84-5.58.74-11.25.91-16.89,1.12-2.63.1-3.84.89-3.78,3.41.55,22.48,1.08,44.96,1.56,67.44.25,11.68.39,23.36.26,35.62-1.29,6.53-2.26,12.47-3.23,18.42-1.2-3.23-1.52-6.42-1.52-9.58,0-2.04-5.59-51.43-5.59,12.54-.2,6.17-.08,10.6-.16,12.92-.09,2.74-.28,5.48-.72,8.34-.43,1.12-.56,2.11-.88,2.79-.56-2.75-.92-5.2-1.29-7.65-1.48,4.19-.52,8.53-.32,12.59.15,3.03-.14,5.76.78,8.76,0,0,.1.42.07.91.17,1.17.38,1.85.59,2.53.08.69.17,1.38-.19,2.48-1.06,1.83-2.27,4.7-2.27,4.7,0,0-.57,4.02-.83,5.64-.61-11.12-3.34-4.47-.09,10.38-.86,2.76-1.72,5.51-2.79,8.11-1.22-3.66-2.24-7.16-3.26-10.66-.43.1-.86.2-1.29.31.15,2.87.29,5.74.44,8.61-4.3-9.82-6.93-19.78-7.1-30.59-.43-25.95-2.01-51.88-2.93-77.83-.36-10.21-.19-20.44-.16-31.25-.08-1.07-.75-11.03-.63-16.18.2-8.33-.83-34.84-.89-39.46-.04-3.42-1.13-5.06-5.2-5.35-8.21-.57-16.41-1.42-24.56-2.53-12.18-1.66-18.02-8.6-17.02-19.84.17-1.91.68-3.79,1.03-5.69,1.07-5.82,4.81-8.6,11.14-10.09,30.88-7.24,61.46-5.21,92.15,1.12,12.48,2.57,23.91,7.1,34.77,12.93-3.02-.08-5.82-.41-8.65-.91-.17-.1-.32-.03-.46.04.13.07-.62.48-1.43.63-.99.06-3.27.38-4.31.49.8.98,2.66,1.89,2.85,2.51-2.95-.71-5.28-2.44-10.6-2.98-.08.22,14.49,6.7,14.49,6.7Z"/>
  <path class="cls-1" d="M443.68,620.49c10.27-2.26,13.87-5.45,21.33-13.11.01-.04.04-.11.14-.23,15.93-22.9,25.26-47.76,27.59-74.36,1.55-17.81.38-35.81.51-53.74.09-11.54.78-23.09.45-34.62-.33-11.17-1.6-22.33-2.44-33.49-.15-1.93-.24-3.84-.36-5.77-.02.04-.05.09-.07.13.04-.23.09-.4.14-.5-1.3-7.68-5.13-14.12-8.2-20.85,1.23,7.58,2.89,15.02,4.66,22.44.13.54.89,6.18-1.43,14.82-.46,1.7-5.25-20.87-5.25-28.33-3.19-7.8-3.9,10.52-6.31,18.15-.03-.45.38-18.1.15-18.41-2.47-3.13.93-8.04-3.58-10.18-.18,2.68-1.22,10.55-1.5,18.02-1.49,38.7-3.05,77.42-5,116.1-.66,13.03-2.06,26.15-7.52,38.39-3.41,7.62-7.88,14.85-12.15,22.11-1.76,2.99-3.93,2.41-5.78-.32-2.3-3.41-4.77-6.71-7.16-10.06-11.68-16.27-21.03-33.33-23.14-53.16-1.13-10.62-3.14-21.16-4.66-31.75-1.6-11.08-3.75-22.13-5.62-33.19-2.71-16-4.83-32.05-3.83-48.36-.83-6.01-1.81-12.02-2.93-18.02h-.01c-1.2-1.02-2.58-1.77-4.04-2.18-.14-.04-.28-.08-.42-.11-2.36,2.99-2.11,7-3.04,10.47-1.3,4.84-2.17,9.78-3.22,14.69-.51-.1-.2-8.51-.06-9.75-1.28.42-8.93,14.67-9.21,14.6.8-3.28,1.6-6.56,2.51-10.2.12-.36-.24-.54-.59-.29-.93,1.31-1.52,2.37-2.11,3.43-.78,4-3.08,11.88-3.44,11.82.57-2.24,1.13-4.48,1.44-6.66-.59.9-.96,1.71-1.24,2.56-1.2,3.64-2.53,7.26-3.67,10.92.03,18.52,1.91,36.87,4.17,55.2.74,6.05,1.52,12.09,2.29,18.12,2.76,21.65,5.52,43.32,13.06,64.16,6.82,18.8,17.01,35.84,30.99,50.96,7.41,8.01,16.5,12.27,28.23,10.62"/>
  <path class="cls-1" d="M339.01,559.58c-1.47-.32-2.87-.83-4.37-1.76,3.83-.02,11.95-.53,12.12-1.3-7-.43-24.62-3.09-26.81-4.61-.67-1.03,18.65-.32,18.81-.93-4.43-1.2-22.19-7.24-22.77-9.71,2.16-.08,14.66-4.84,14.88-5.91-8.56-.73-17.2-1.08-25.63-2.31-7.17-1.06-38.57-2.01-44.23-.88-.33.03-.94-22.9.07-23.79,1.27-23.29,2.81-45.84,2.61-68.38-.38-42.53-.91-188.84-1.6-231.37-.45-29.47-1-58.95-1.61-88.42-.31-14.31-3.23-28.46-9.85-41.52.4,5.01-.69,14.34-1.2,16.22-2.25,8.35-7.22,17.15-7.93,17.07.29-2.1,1.96-15.02,2.25-17.12-1.83.86-6.26,22.51-7.4,28.19-.4-.07-3.37-15.25-1.78-21.52.2-.62-.29-.88-.78-.42-1.43,2.33-2.36,4.19-3.28,6.05-.18.83-.36,1.68-.53,2.51l-.05,2.15c-.69,38.51-1.34,77-2,115.5-1.2,70.43-2.38,244.63-3.65,315.04-.2,10.18-2.16,20.33-2.63,30.51-.2,4.67.49,9.65,2.09,14.09,4.84,13.49,20.48,23.14,23.13,24.42,21.73,10.55,41.92,8.25,60.83-5.87,16.93-12.66,29.21-28.71,39.69-43.96-2.79-.67-5.59-1.35-8.38-1.96Z"/>
  <path class="cls-1" d="M806.77,611.41c-.49-3.01.84-33.47.34-36.49-.17-1-.18-4.99.19-5.04.06.57.55,3.02.61,3.59.2,1.7.43,3.4.79,5.02.24-1.02.3-1.91.27-2.78-.22-5.58-.12-11.19-.8-16.72-.68-5.5-3.25-14.96-3.36-15.67-.14-.84-.3-1.62-.51-2.4-.29-1.08-.6-2.16-.89-3.24-1.35-4.83-2.77-9.7-4.35-14.68,0-.02-.78-2.03-1.45-3.95-1.22-3.48-2.85-9.39-2.9-9.62-1.02-5.41-.1-.85.58-10.16-4.73-1.21-5.73-4.73-6.87-8.14l-18.41-63.77c-2.04-5.86-4.15-11.57-6.55-17.15-2.43-5.64-5.01-11.23-7.78-16.73-3.9-7.72-14-22.73-15.47-23.68-11.63-7.56-25.13,43.68-27.19,48.48-13.63,31.64-13.96,32.9-21.78,66.13-.53,2.24-.88,4.19-4.23,4.34-1.17.06-2.94,1.6-3.26,2.73-2.29,8.32-4.74,16.62-1.32,25.31.98,2.49.92,5.55.54,8.24-2.2,15.14-4.92,45.05-7.27,60.16l-.15.32c-.62,2.94-1.5,5.55-1.49,8.16.05,7.56,1.21,21.29.96,22.7.36,1.89.9,3.2,1.46,4.52.22,0,2.08-.45,8.92-7.16,0-.31,2.75-5.25,4-7.39-.01,0,1.37-12.65,2.33-15.24.42.09,1.77,4.76,2.04,4.75,5.37-16.18,14.58-34.4,8.69-16.15-1.29,4-2.66,10.97-2.32,11.06,2.4-5.78,4.81-11.56,7.5-18.01.18.46.16,3.51.75,5.05.54-2.46,6.26-30.71,6.65-33.38.53-3.55,2.53-4.64,6.23-4.49,10.94.46,21.51-1.32,31.64-5.14-.5-.3-1.01-.6-2.14-.81-1.13.22-35.51-3.5-6.21-3.5-.13-.42,15.39-1.06,15.07-.99-.38.56,2.04,3.91,1.73,4.29,10.05,27.54,17.61,58.75,33.68,84.95,1.47-12.81,7.78-17.21,7.78-21.88-.2-.02,3.79,15.73,3.98,14.55ZM729.27,495.28c-.69-.07-1.9-1.82-1.71-2.51,3.62-12.87,7.43-25.68,12.22-38.5.4.99.79,1.98,1.19,2.98,2.73,13.33,5.38,25.96,8.24,39.65-6.99-.53-13.48-.93-19.94-1.61Z"/>
  <path class="cls-1" d="M193.06,307.39c.01-.06,0-.11,0-.17-.49-2.98-.99-5.97-1.49-8.95-.17-1-.34-2.01-.5-3.01,1.4-.18,1.5,3.91,2.09,6.59.24-1.02.3-1.91.27-2.78-.22-5.58-.12-11.19-.8-16.72-.68-5.49-3.25-14.96-3.36-15.67-.14-.84-.3-1.62-.51-2.4-.29-1.08-.6-2.16-.89-3.24-1.35-4.83-2.77-9.7-4.35-14.68-.01,0-.02-.02-.03-.03-.49-1.32-.97-2.63-1.42-3.92-1.11-3.04-2.88-14.92-3.33-15.82-.03-.07-.04-.14-.05-.22-.05-1.41-.06-2.72.32-3.35.16-.27,0-.61-.29-.71-3.86-1.43-4.79-4.67-5.84-7.82l-18.41-63.76s0-.02,0-.03c-2.04-5.86-4.15-11.56-6.55-17.14-2.43-5.64-5.01-11.23-7.78-16.73-5.32-10.54-19.41-32.73-26.16-23.49-.7.96-.57,2.67-.79,4.41-.68,5.35-3.19,5.95-3.93,8.06-.4,1.13,1.61,5.86.08,7.46-.85.89-1.4-4.03-1.88-2.93-1.99,4.61,1.07,14.38-4.44,19.43-2.06,1.89,2.68-18.77.74-16.78-6.98,7.17-4.7,16.92-6.34,23.87-1.64,6.95-2.95.44-4.41,4.95-5.23,16.18-13.41,49.41-17.31,65.95-.53,2.24-.88,4.19-4.23,4.34-1.17.06-2.94,1.6-3.26,2.73-2.29,8.32-4.74,16.62-1.32,25.31.98,2.49.92,5.55.54,8.24-2.19,15.14-5.6,41.21-7.95,56.32l-.15.32c-.62,2.94-1.5,5.55-1.49,8.16.05,7.44,1.17,20.86.97,22.62,0,.06,0,.11,0,.16.33,1.69.81,2.92,1.31,4.11.08.2.27.32.48.32.2,0,.49-.01.98-.04,5.82-.08,7.39-3.03,7.58-7.12,0-.31-.01-.62-.03-.91,1.52-2.21,2.78-4.33,4.03-6.47-.01,0-.07.02-.25.05-5.94-.95,1.62-12.69,2.58-15.29.28.06.56.12.84.17.24.05.41.26.41.51v.97c1,.17.75.13,1.75.3,5.42-15.34,13.28-30.54,7.73-13.35-.02.08-.05.15-.07.23l1.96.72c.9-2.17,1.83-4.4,2.79-6.7.18-.43.79-.44.96,0,.14.37.32.83.55,1.44.49-2.24.77-3.49,1.03-4.73.01-.28.02-.56.05-.85,0,.21.01.39.02.53.07-.42.15-.78.18-1.09,1.04-.46,2.21-1.28,2.63-2.35.97-2.48,2.78-16.04,3.16-18.64.53-3.55,2.53-4.64,6.23-4.49,8.56.36,27.34-2.27,39.95-5.26.25-.06.5.08.59.32,9.86,26.84,21.88,53.05,37.48,78.61.21.34.73.33.91-.03,4.71-9.55-2.15-18.7-.11-27.79.11-.47.76-.56.97-.12l5.29,10.52c.16.32.58.37.84.13,2.58-2.5,1.85-5.29.62-8.13-.2-.02.6-2.92.82-4.15ZM113.74,218.62c-.69-.07-1.9-1.82-1.71-2.51,3.5-12.44,7.17-24.84,11.75-37.23.16-.45.8-.45.97-.01.22.56.44,1.12.67,1.68.01.03.02.06.03.09,2.68,13.09,5.28,25.52,8.09,38.93.07.34-.21.65-.55.62-6.73-.5-13.01-.9-19.25-1.56Z"/>
  <path class="cls-1" d="M461.84,309.29c-.36,1.22-7.57,18.69-10.04,23.37-1.21,2.29-2.56-3.72-4.76-.41-.74,1.12-1.12,5.77-2.66,6.45-.54-1.1-1.01-3.7-.73-4.74,0,0,.92-14.13-.49-3.64-.33.11-1.97,8.64-2.29,8.75-.8-2.95-2.41-5.93-2.24-8.83.71-12.26,1.6-24.52,3.09-36.72,1.33-10.9,5.74-29.29,7.16-40.18.56-4.29.5-8.94-.74-13.06-2.49-8.25.27-15.86,2.09-23.64.19-.8,1.45-1.85,2.35-1.97,4.44-.56,4.77-3.57,5.53-6.64,8.27-33.48,18.68-66.37,32.88-98.22,1.46-3.28,2.24-6.82,3.72-10.1.84-1.86,3.7-8.57,5.37-9.29,6.43-2.78,5.49,10.8,12.09,20.97,1.23,1.89-7.99-28.84-3.27-18.24,6.67,14.97,9.15,13.38,13.03,26.84,7.53,26.15,1.04-5.19,5.46,4.7,10.82,24.21,19.1,67.55,28.69,92.11,2.39,6.13,7.19,6.9,12.55,7.86-.03.58-9.46,4.73-4,15.55,3.33,6.61.91,9.81,3.73,19.23,4.62,15.44,10.06,30.8,8.45,47.15-.5,5.07-1.25,10.12-1.83,14.82-2.4-3.64-4.83-7.33-7.39-11.21-2.44,9.34,5.3,18.81.13,28.26-16.84-24.99-28.64-51.79-38.96-78.88-3.88-2.18-33.78.57-41.49.57,0,.43,26.66,3.21,35.4,3.21.07.44-21.17,1.64-27.33,1.99-13.04.74-14.64,8.21-17.72,19.48-.9,3.3-4.64,5.95-6.95,8.97-.68.89-.91,2.06-1.34,3.1-1.61,3.86-3.21,7.73-4.82,11.59-.49-.15,1.91-8.49,1.42-8.64M509.71,191.44c-.77-3.81-1.54-7.62-2.31-11.43-.56-.02-1.12-.04-1.67-.05-3.73,12.78-7.49,25.56-11.11,38.37-.18.65.81,2.25,1.38,2.31,6.67.67,13.37,1.14,20.61,1.7-2.4-10.77-4.55-20.46-6.89-30.89Z"/>
</svg>